<?xml version="1.0" encoding="utf-8"?>
<!-- Generator: Adobe Illustrator 25.0.0, SVG Export Plug-In . SVG Version: 6.00 Build 0)  -->
<svg version="1.1" id="Layer_1" xmlns="http://www.w3.org/2000/svg" xmlns:xlink="http://www.w3.org/1999/xlink" x="0px" y="0px"
	 viewBox="0 0 512 336.7" style="enable-background:new 0 0 512 336.7;" xml:space="preserve">
<style type="text/css">
	.st0{fill:#F5F5F5;}
	.st1{fill:#FF4B55;}
</style>
<g>
	<path class="st0" d="M503.2,336.7H35.9C16.1,336.7,0,320.7,0,300.9V37.1C0,17.3,16.1,1.3,35.9,1.3h440.3
		c19.8,0,35.9,16.1,35.9,35.9v290.8C512,332.8,508,336.7,503.2,336.7z"/>
	<rect x="114.8" y="1.3" class="st0" width="282.5" height="335.5"/>
</g>
<g>
	<path class="st1" d="M35.9,1.3C16.1,1.3,0,17.3,0,37.1v263.7c0,19.8,16.1,35.9,35.9,35.9h78.9V1.3H35.9z"/>
	<path class="st1" d="M476.1,1.3h-78.9v335.4h78.9c19.8,0,35.9-16.1,35.9-35.9V37.1C512,17.3,495.9,1.3,476.1,1.3z"/>
	<path class="st1" d="M309.6,207.8l52.4-29.9l-12-6c-3.4-1.7-5.3-5.3-4.8-9.1l3.9-29.3l-22.2,6.5c-4.9,1.4-10-1.6-11.1-6.6l-2.1-9.6
		l-20.8,24.4c-2.9,3.4-8.4,0.8-7.6-3.6l8.9-51.7l-13.6,3.7c-4,1.1-8.2-0.7-10.1-4.4L256,65.3v0l0,0l0,0v0l-14.3,26.9
		c-1.9,3.6-6.1,5.4-10.1,4.4l-13.6-3.7l8.9,51.7c0.8,4.4-4.7,7-7.6,3.6l-20.8-24.4l-2.1,9.6c-1.1,5-6.2,8-11.1,6.6l-22.2-6.5
		l3.9,29.3c0.5,3.7-1.4,7.4-4.8,9.1l-12,6l52.4,29.9c5.4,3.1,7.8,9.7,5.6,15.5l-4.5,12l44.9-3.8c2.5-0.2,4.6,1.8,4.5,4.3l-1.4,48
		h8.8l-1.4-48c-0.1-2.5,2-4.5,4.5-4.3l44.9,3.8l-4.5-12C301.8,217.4,304.1,210.9,309.6,207.8z"/>
</g>
</svg>
